<mxfile host="app.diagrams.net" modified="2023-08-07T14:11:28.708Z" agent="Mozilla/5.0 (Windows NT 10.0; Win64; x64) AppleWebKit/537.36 (KHTML, like Gecko) Chrome/115.0.0.0 Safari/537.36" etag="4NBuqnEDrnR6dwBSNK3r" version="21.6.6" type="device">
  <diagram name="PÃ¡gina-1" id="yVUH76mumZCijP-emT5a">
    <mxGraphModel dx="1134" dy="663" grid="1" gridSize="10" guides="1" tooltips="1" connect="1" arrows="1" fold="1" page="1" pageScale="1" pageWidth="827" pageHeight="1169" math="0" shadow="0">
      <root>
        <mxCell id="0" />
        <mxCell id="1" parent="0" />
        <mxCell id="Qf5cFg5PGg5xUZjVv9TD-1" value="Gestor" style="rounded=0;whiteSpace=wrap;html=1;fillColor=#dae8fc;strokeColor=#6c8ebf;" vertex="1" parent="1">
          <mxGeometry x="140" y="170" width="120" height="60" as="geometry" />
        </mxCell>
        <mxCell id="Qf5cFg5PGg5xUZjVv9TD-2" value="Gerencia" style="rhombus;whiteSpace=wrap;html=1;fillColor=#ffe6cc;strokeColor=#d79b00;" vertex="1" parent="1">
          <mxGeometry x="330" y="160" width="80" height="80" as="geometry" />
        </mxCell>
        <mxCell id="Qf5cFg5PGg5xUZjVv9TD-3" value="Departamento" style="rounded=0;whiteSpace=wrap;html=1;fillColor=#dae8fc;strokeColor=#6c8ebf;" vertex="1" parent="1">
          <mxGeometry x="480" y="170" width="120" height="60" as="geometry" />
        </mxCell>
        <mxCell id="Qf5cFg5PGg5xUZjVv9TD-6" value="1,1" style="text;html=1;align=center;verticalAlign=middle;resizable=0;points=[];autosize=1;strokeColor=none;fillColor=none;" vertex="1" parent="1">
          <mxGeometry x="280" y="170" width="40" height="30" as="geometry" />
        </mxCell>
        <mxCell id="Qf5cFg5PGg5xUZjVv9TD-7" value="1,1" style="text;html=1;align=center;verticalAlign=middle;resizable=0;points=[];autosize=1;strokeColor=none;fillColor=none;" vertex="1" parent="1">
          <mxGeometry x="420" y="170" width="40" height="30" as="geometry" />
        </mxCell>
        <mxCell id="Qf5cFg5PGg5xUZjVv9TD-9" value="Autor" style="rounded=0;whiteSpace=wrap;html=1;fillColor=#dae8fc;strokeColor=#6c8ebf;" vertex="1" parent="1">
          <mxGeometry x="160" y="330" width="120" height="60" as="geometry" />
        </mxCell>
        <mxCell id="Qf5cFg5PGg5xUZjVv9TD-10" value="Escrever" style="rhombus;whiteSpace=wrap;html=1;fillColor=#ffe6cc;strokeColor=#d79b00;" vertex="1" parent="1">
          <mxGeometry x="340" y="320" width="80" height="80" as="geometry" />
        </mxCell>
        <mxCell id="Qf5cFg5PGg5xUZjVv9TD-11" value="Livro" style="rounded=0;whiteSpace=wrap;html=1;fillColor=#dae8fc;strokeColor=#6c8ebf;" vertex="1" parent="1">
          <mxGeometry x="480" y="330" width="120" height="60" as="geometry" />
        </mxCell>
        <mxCell id="Qf5cFg5PGg5xUZjVv9TD-16" value="1,N" style="text;html=1;align=center;verticalAlign=middle;resizable=0;points=[];autosize=1;strokeColor=none;fillColor=none;" vertex="1" parent="1">
          <mxGeometry x="290" y="330" width="40" height="30" as="geometry" />
        </mxCell>
        <mxCell id="Qf5cFg5PGg5xUZjVv9TD-17" value="1,N" style="text;html=1;align=center;verticalAlign=middle;resizable=0;points=[];autosize=1;strokeColor=none;fillColor=none;" vertex="1" parent="1">
          <mxGeometry x="420" y="330" width="40" height="30" as="geometry" />
        </mxCell>
        <mxCell id="Qf5cFg5PGg5xUZjVv9TD-18" value="Time" style="rounded=0;whiteSpace=wrap;html=1;fillColor=#dae8fc;strokeColor=#6c8ebf;" vertex="1" parent="1">
          <mxGeometry x="150" y="470" width="120" height="60" as="geometry" />
        </mxCell>
        <mxCell id="Qf5cFg5PGg5xUZjVv9TD-19" value="Jogador" style="rounded=0;whiteSpace=wrap;html=1;fillColor=#dae8fc;strokeColor=#6c8ebf;" vertex="1" parent="1">
          <mxGeometry x="460" y="470" width="120" height="60" as="geometry" />
        </mxCell>
        <mxCell id="Qf5cFg5PGg5xUZjVv9TD-20" value="joga" style="rhombus;whiteSpace=wrap;html=1;fillColor=#ffe6cc;strokeColor=#d79b00;" vertex="1" parent="1">
          <mxGeometry x="334" y="460" width="80" height="80" as="geometry" />
        </mxCell>
        <mxCell id="Qf5cFg5PGg5xUZjVv9TD-22" value="1,N" style="text;html=1;align=center;verticalAlign=middle;resizable=0;points=[];autosize=1;strokeColor=none;fillColor=none;" vertex="1" parent="1">
          <mxGeometry x="280" y="470" width="40" height="30" as="geometry" />
        </mxCell>
        <mxCell id="Qf5cFg5PGg5xUZjVv9TD-24" value="1,1" style="text;html=1;align=center;verticalAlign=middle;resizable=0;points=[];autosize=1;strokeColor=none;fillColor=none;" vertex="1" parent="1">
          <mxGeometry x="410" y="470" width="40" height="30" as="geometry" />
        </mxCell>
        <mxCell id="Qf5cFg5PGg5xUZjVv9TD-25" value="Cliente" style="rounded=0;whiteSpace=wrap;html=1;fillColor=#dae8fc;strokeColor=#6c8ebf;" vertex="1" parent="1">
          <mxGeometry x="150" y="670" width="120" height="60" as="geometry" />
        </mxCell>
        <mxCell id="Qf5cFg5PGg5xUZjVv9TD-26" value="Encomenda" style="rounded=0;whiteSpace=wrap;html=1;fillColor=#dae8fc;strokeColor=#6c8ebf;" vertex="1" parent="1">
          <mxGeometry x="460" y="670" width="120" height="60" as="geometry" />
        </mxCell>
        <mxCell id="Qf5cFg5PGg5xUZjVv9TD-27" value="Realiza" style="rhombus;whiteSpace=wrap;html=1;fillColor=#ffe6cc;strokeColor=#d79b00;" vertex="1" parent="1">
          <mxGeometry x="320" y="660" width="80" height="80" as="geometry" />
        </mxCell>
        <mxCell id="Qf5cFg5PGg5xUZjVv9TD-29" value="1,N" style="text;html=1;align=center;verticalAlign=middle;resizable=0;points=[];autosize=1;strokeColor=none;fillColor=none;" vertex="1" parent="1">
          <mxGeometry x="280" y="670" width="40" height="30" as="geometry" />
        </mxCell>
        <mxCell id="Qf5cFg5PGg5xUZjVv9TD-31" value="1,1" style="text;html=1;align=center;verticalAlign=middle;resizable=0;points=[];autosize=1;strokeColor=none;fillColor=none;" vertex="1" parent="1">
          <mxGeometry x="410" y="670" width="40" height="30" as="geometry" />
        </mxCell>
        <mxCell id="Qf5cFg5PGg5xUZjVv9TD-32" value="Floricultura" style="rounded=0;whiteSpace=wrap;html=1;fillColor=#dae8fc;strokeColor=#6c8ebf;" vertex="1" parent="1">
          <mxGeometry x="130" y="900" width="120" height="60" as="geometry" />
        </mxCell>
        <mxCell id="Qf5cFg5PGg5xUZjVv9TD-33" value="Cliente" style="rounded=0;whiteSpace=wrap;html=1;fillColor=#dae8fc;strokeColor=#6c8ebf;" vertex="1" parent="1">
          <mxGeometry x="480" y="900" width="120" height="60" as="geometry" />
        </mxCell>
        <mxCell id="Qf5cFg5PGg5xUZjVv9TD-34" value="compra" style="rounded=0;whiteSpace=wrap;html=1;fillColor=#dae8fc;strokeColor=#6c8ebf;" vertex="1" parent="1">
          <mxGeometry x="480" y="1140" width="120" height="60" as="geometry" />
        </mxCell>
        <mxCell id="Qf5cFg5PGg5xUZjVv9TD-35" value="cadastro" style="rhombus;whiteSpace=wrap;html=1;fillColor=#ffe6cc;strokeColor=#d79b00;" vertex="1" parent="1">
          <mxGeometry x="320" y="890" width="80" height="80" as="geometry" />
        </mxCell>
        <mxCell id="Qf5cFg5PGg5xUZjVv9TD-36" value="armazenar" style="rhombus;whiteSpace=wrap;html=1;fillColor=#ffe6cc;strokeColor=#d79b00;" vertex="1" parent="1">
          <mxGeometry x="500" y="1010" width="80" height="80" as="geometry" />
        </mxCell>
        <mxCell id="Qf5cFg5PGg5xUZjVv9TD-46" value="Produto" style="rounded=0;whiteSpace=wrap;html=1;fillColor=#dae8fc;strokeColor=#6c8ebf;" vertex="1" parent="1">
          <mxGeometry x="132" y="1130" width="120" height="60" as="geometry" />
        </mxCell>
        <mxCell id="Qf5cFg5PGg5xUZjVv9TD-51" value="" style="endArrow=none;html=1;rounded=0;entryX=0;entryY=0.5;entryDx=0;entryDy=0;exitX=1;exitY=0.5;exitDx=0;exitDy=0;" edge="1" parent="1" source="Qf5cFg5PGg5xUZjVv9TD-32" target="Qf5cFg5PGg5xUZjVv9TD-35">
          <mxGeometry width="50" height="50" relative="1" as="geometry">
            <mxPoint x="380" y="1050" as="sourcePoint" />
            <mxPoint x="430" y="1000" as="targetPoint" />
          </mxGeometry>
        </mxCell>
        <mxCell id="Qf5cFg5PGg5xUZjVv9TD-191" value="(1,1)" style="edgeLabel;html=1;align=center;verticalAlign=middle;resizable=0;points=[];" vertex="1" connectable="0" parent="Qf5cFg5PGg5xUZjVv9TD-51">
          <mxGeometry x="0.0476" y="1" relative="1" as="geometry">
            <mxPoint as="offset" />
          </mxGeometry>
        </mxCell>
        <mxCell id="Qf5cFg5PGg5xUZjVv9TD-52" value="cadastro" style="rhombus;whiteSpace=wrap;html=1;fillColor=#ffe6cc;strokeColor=#d79b00;" vertex="1" parent="1">
          <mxGeometry x="150" y="1000" width="80" height="80" as="geometry" />
        </mxCell>
        <mxCell id="Qf5cFg5PGg5xUZjVv9TD-54" value="" style="endArrow=none;html=1;rounded=0;entryX=0.5;entryY=1;entryDx=0;entryDy=0;" edge="1" parent="1" source="Qf5cFg5PGg5xUZjVv9TD-52" target="Qf5cFg5PGg5xUZjVv9TD-32">
          <mxGeometry width="50" height="50" relative="1" as="geometry">
            <mxPoint x="380" y="1050" as="sourcePoint" />
            <mxPoint x="430" y="1000" as="targetPoint" />
          </mxGeometry>
        </mxCell>
        <mxCell id="Qf5cFg5PGg5xUZjVv9TD-190" value="(1,1)" style="edgeLabel;html=1;align=center;verticalAlign=middle;resizable=0;points=[];" vertex="1" connectable="0" parent="Qf5cFg5PGg5xUZjVv9TD-54">
          <mxGeometry x="0.1167" y="-2" relative="1" as="geometry">
            <mxPoint as="offset" />
          </mxGeometry>
        </mxCell>
        <mxCell id="Qf5cFg5PGg5xUZjVv9TD-55" value="" style="endArrow=none;html=1;rounded=0;entryX=0.5;entryY=1;entryDx=0;entryDy=0;" edge="1" parent="1" target="Qf5cFg5PGg5xUZjVv9TD-52">
          <mxGeometry width="50" height="50" relative="1" as="geometry">
            <mxPoint x="190" y="1130" as="sourcePoint" />
            <mxPoint x="430" y="1000" as="targetPoint" />
          </mxGeometry>
        </mxCell>
        <mxCell id="Qf5cFg5PGg5xUZjVv9TD-189" value="(1,N)" style="edgeLabel;html=1;align=center;verticalAlign=middle;resizable=0;points=[];" vertex="1" connectable="0" parent="Qf5cFg5PGg5xUZjVv9TD-55">
          <mxGeometry x="0.2" relative="1" as="geometry">
            <mxPoint as="offset" />
          </mxGeometry>
        </mxCell>
        <mxCell id="Qf5cFg5PGg5xUZjVv9TD-56" value="" style="endArrow=none;html=1;rounded=0;entryX=0;entryY=0.5;entryDx=0;entryDy=0;exitX=1;exitY=0.5;exitDx=0;exitDy=0;" edge="1" parent="1" source="Qf5cFg5PGg5xUZjVv9TD-35" target="Qf5cFg5PGg5xUZjVv9TD-33">
          <mxGeometry width="50" height="50" relative="1" as="geometry">
            <mxPoint x="380" y="1050" as="sourcePoint" />
            <mxPoint x="430" y="1000" as="targetPoint" />
          </mxGeometry>
        </mxCell>
        <mxCell id="Qf5cFg5PGg5xUZjVv9TD-192" value="(1,N)" style="edgeLabel;html=1;align=center;verticalAlign=middle;resizable=0;points=[];" vertex="1" connectable="0" parent="Qf5cFg5PGg5xUZjVv9TD-56">
          <mxGeometry x="-0.0333" y="4" relative="1" as="geometry">
            <mxPoint as="offset" />
          </mxGeometry>
        </mxCell>
        <mxCell id="Qf5cFg5PGg5xUZjVv9TD-57" value="" style="endArrow=none;html=1;rounded=0;entryX=0.5;entryY=1;entryDx=0;entryDy=0;" edge="1" parent="1" source="Qf5cFg5PGg5xUZjVv9TD-36" target="Qf5cFg5PGg5xUZjVv9TD-33">
          <mxGeometry width="50" height="50" relative="1" as="geometry">
            <mxPoint x="380" y="1050" as="sourcePoint" />
            <mxPoint x="430" y="1000" as="targetPoint" />
          </mxGeometry>
        </mxCell>
        <mxCell id="Qf5cFg5PGg5xUZjVv9TD-193" value="(1,N)" style="edgeLabel;html=1;align=center;verticalAlign=middle;resizable=0;points=[];" vertex="1" connectable="0" parent="Qf5cFg5PGg5xUZjVv9TD-57">
          <mxGeometry x="0.0533" y="-2" relative="1" as="geometry">
            <mxPoint as="offset" />
          </mxGeometry>
        </mxCell>
        <mxCell id="Qf5cFg5PGg5xUZjVv9TD-58" value="" style="endArrow=none;html=1;rounded=0;exitX=0.5;exitY=0;exitDx=0;exitDy=0;entryX=0.5;entryY=1;entryDx=0;entryDy=0;" edge="1" parent="1" source="Qf5cFg5PGg5xUZjVv9TD-34" target="Qf5cFg5PGg5xUZjVv9TD-36">
          <mxGeometry width="50" height="50" relative="1" as="geometry">
            <mxPoint x="380" y="1050" as="sourcePoint" />
            <mxPoint x="430" y="1000" as="targetPoint" />
          </mxGeometry>
        </mxCell>
        <mxCell id="Qf5cFg5PGg5xUZjVv9TD-188" value="(1,N)" style="edgeLabel;html=1;align=center;verticalAlign=middle;resizable=0;points=[];" vertex="1" connectable="0" parent="Qf5cFg5PGg5xUZjVv9TD-58">
          <mxGeometry x="0.2267" relative="1" as="geometry">
            <mxPoint as="offset" />
          </mxGeometry>
        </mxCell>
        <mxCell id="Qf5cFg5PGg5xUZjVv9TD-60" value="" style="endArrow=none;html=1;rounded=0;entryX=1;entryY=0.5;entryDx=0;entryDy=0;exitX=0;exitY=0.5;exitDx=0;exitDy=0;" edge="1" parent="1" source="Qf5cFg5PGg5xUZjVv9TD-27" target="Qf5cFg5PGg5xUZjVv9TD-25">
          <mxGeometry width="50" height="50" relative="1" as="geometry">
            <mxPoint x="380" y="850" as="sourcePoint" />
            <mxPoint x="430" y="800" as="targetPoint" />
          </mxGeometry>
        </mxCell>
        <mxCell id="Qf5cFg5PGg5xUZjVv9TD-61" value="" style="endArrow=none;html=1;rounded=0;entryX=0;entryY=0.5;entryDx=0;entryDy=0;exitX=1;exitY=0.5;exitDx=0;exitDy=0;" edge="1" parent="1" source="Qf5cFg5PGg5xUZjVv9TD-27" target="Qf5cFg5PGg5xUZjVv9TD-26">
          <mxGeometry width="50" height="50" relative="1" as="geometry">
            <mxPoint x="380" y="850" as="sourcePoint" />
            <mxPoint x="430" y="800" as="targetPoint" />
          </mxGeometry>
        </mxCell>
        <mxCell id="Qf5cFg5PGg5xUZjVv9TD-63" value="" style="endArrow=none;html=1;rounded=0;entryX=1;entryY=0.5;entryDx=0;entryDy=0;exitX=0;exitY=0.5;exitDx=0;exitDy=0;" edge="1" parent="1" source="Qf5cFg5PGg5xUZjVv9TD-20" target="Qf5cFg5PGg5xUZjVv9TD-18">
          <mxGeometry width="50" height="50" relative="1" as="geometry">
            <mxPoint x="380" y="550" as="sourcePoint" />
            <mxPoint x="430" y="500" as="targetPoint" />
          </mxGeometry>
        </mxCell>
        <mxCell id="Qf5cFg5PGg5xUZjVv9TD-65" value="" style="endArrow=none;html=1;rounded=0;entryX=0;entryY=0.5;entryDx=0;entryDy=0;exitX=1;exitY=0.5;exitDx=0;exitDy=0;" edge="1" parent="1" source="Qf5cFg5PGg5xUZjVv9TD-20" target="Qf5cFg5PGg5xUZjVv9TD-19">
          <mxGeometry width="50" height="50" relative="1" as="geometry">
            <mxPoint x="380" y="550" as="sourcePoint" />
            <mxPoint x="430" y="500" as="targetPoint" />
          </mxGeometry>
        </mxCell>
        <mxCell id="Qf5cFg5PGg5xUZjVv9TD-66" value="" style="endArrow=none;html=1;rounded=0;entryX=0;entryY=0.5;entryDx=0;entryDy=0;exitX=1;exitY=0.5;exitDx=0;exitDy=0;" edge="1" parent="1" source="Qf5cFg5PGg5xUZjVv9TD-10" target="Qf5cFg5PGg5xUZjVv9TD-11">
          <mxGeometry width="50" height="50" relative="1" as="geometry">
            <mxPoint x="380" y="450" as="sourcePoint" />
            <mxPoint x="430" y="400" as="targetPoint" />
          </mxGeometry>
        </mxCell>
        <mxCell id="Qf5cFg5PGg5xUZjVv9TD-67" value="" style="endArrow=none;html=1;rounded=0;entryX=0;entryY=0.5;entryDx=0;entryDy=0;exitX=1;exitY=0.5;exitDx=0;exitDy=0;" edge="1" parent="1" source="Qf5cFg5PGg5xUZjVv9TD-9" target="Qf5cFg5PGg5xUZjVv9TD-10">
          <mxGeometry width="50" height="50" relative="1" as="geometry">
            <mxPoint x="380" y="450" as="sourcePoint" />
            <mxPoint x="430" y="400" as="targetPoint" />
          </mxGeometry>
        </mxCell>
        <mxCell id="Qf5cFg5PGg5xUZjVv9TD-68" value="" style="endArrow=none;html=1;rounded=0;entryX=0;entryY=0.5;entryDx=0;entryDy=0;exitX=1;exitY=0.5;exitDx=0;exitDy=0;" edge="1" parent="1" source="Qf5cFg5PGg5xUZjVv9TD-2" target="Qf5cFg5PGg5xUZjVv9TD-3">
          <mxGeometry width="50" height="50" relative="1" as="geometry">
            <mxPoint x="380" y="250" as="sourcePoint" />
            <mxPoint x="430" y="200" as="targetPoint" />
          </mxGeometry>
        </mxCell>
        <mxCell id="Qf5cFg5PGg5xUZjVv9TD-69" value="" style="endArrow=none;html=1;rounded=0;entryX=1;entryY=0.5;entryDx=0;entryDy=0;exitX=0;exitY=0.5;exitDx=0;exitDy=0;" edge="1" parent="1" source="Qf5cFg5PGg5xUZjVv9TD-2" target="Qf5cFg5PGg5xUZjVv9TD-1">
          <mxGeometry width="50" height="50" relative="1" as="geometry">
            <mxPoint x="380" y="250" as="sourcePoint" />
            <mxPoint x="430" y="200" as="targetPoint" />
          </mxGeometry>
        </mxCell>
        <mxCell id="Qf5cFg5PGg5xUZjVv9TD-73" value="RG" style="ellipse;whiteSpace=wrap;html=1;fillColor=#d5e8d4;strokeColor=#82b366;" vertex="1" parent="1">
          <mxGeometry x="640" y="915" width="80" height="30" as="geometry" />
        </mxCell>
        <mxCell id="Qf5cFg5PGg5xUZjVv9TD-75" value="&lt;u&gt;CPF&lt;/u&gt;" style="ellipse;whiteSpace=wrap;html=1;fillColor=#d5e8d4;strokeColor=#82b366;" vertex="1" parent="1">
          <mxGeometry x="640" y="950" width="80" height="30" as="geometry" />
        </mxCell>
        <mxCell id="Qf5cFg5PGg5xUZjVv9TD-76" value="Nome" style="ellipse;whiteSpace=wrap;html=1;fillColor=#d5e8d4;strokeColor=#82b366;" vertex="1" parent="1">
          <mxGeometry x="640" y="990" width="80" height="30" as="geometry" />
        </mxCell>
        <mxCell id="Qf5cFg5PGg5xUZjVv9TD-77" value="Telefone" style="ellipse;whiteSpace=wrap;html=1;fillColor=#d5e8d4;strokeColor=#82b366;" vertex="1" parent="1">
          <mxGeometry x="640" y="1035" width="80" height="30" as="geometry" />
        </mxCell>
        <mxCell id="Qf5cFg5PGg5xUZjVv9TD-78" value="EndereÃ§o" style="ellipse;whiteSpace=wrap;html=1;fillColor=#d5e8d4;strokeColor=#82b366;" vertex="1" parent="1">
          <mxGeometry x="640" y="1080" width="80" height="30" as="geometry" />
        </mxCell>
        <mxCell id="Qf5cFg5PGg5xUZjVv9TD-84" value="" style="endArrow=none;html=1;rounded=0;entryX=1;entryY=0.5;entryDx=0;entryDy=0;exitX=0;exitY=0.5;exitDx=0;exitDy=0;" edge="1" parent="1" source="Qf5cFg5PGg5xUZjVv9TD-73" target="Qf5cFg5PGg5xUZjVv9TD-33">
          <mxGeometry width="50" height="50" relative="1" as="geometry">
            <mxPoint x="380" y="1050" as="sourcePoint" />
            <mxPoint x="430" y="1000" as="targetPoint" />
          </mxGeometry>
        </mxCell>
        <mxCell id="Qf5cFg5PGg5xUZjVv9TD-87" value="nome do produto" style="ellipse;whiteSpace=wrap;html=1;fillColor=#d5e8d4;strokeColor=#82b366;" vertex="1" parent="1">
          <mxGeometry x="160" y="1200" width="80" height="30" as="geometry" />
        </mxCell>
        <mxCell id="Qf5cFg5PGg5xUZjVv9TD-89" value="vaso" style="ellipse;whiteSpace=wrap;html=1;fillColor=#d5e8d4;strokeColor=#82b366;" vertex="1" parent="1">
          <mxGeometry x="160" y="1280" width="80" height="30" as="geometry" />
        </mxCell>
        <mxCell id="Qf5cFg5PGg5xUZjVv9TD-90" value="flor" style="ellipse;whiteSpace=wrap;html=1;fillColor=#d5e8d4;strokeColor=#82b366;" vertex="1" parent="1">
          <mxGeometry x="160" y="1240" width="80" height="30" as="geometry" />
        </mxCell>
        <mxCell id="Qf5cFg5PGg5xUZjVv9TD-91" value="planta" style="ellipse;whiteSpace=wrap;html=1;fillColor=#d5e8d4;strokeColor=#82b366;" vertex="1" parent="1">
          <mxGeometry x="160" y="1320" width="80" height="30" as="geometry" />
        </mxCell>
        <mxCell id="Qf5cFg5PGg5xUZjVv9TD-92" value="preÃ§o" style="ellipse;whiteSpace=wrap;html=1;fillColor=#d5e8d4;strokeColor=#82b366;" vertex="1" parent="1">
          <mxGeometry x="160" y="1360" width="80" height="30" as="geometry" />
        </mxCell>
        <mxCell id="Qf5cFg5PGg5xUZjVv9TD-93" value="quantidade em estoque" style="ellipse;whiteSpace=wrap;html=1;fillColor=#d5e8d4;strokeColor=#82b366;" vertex="1" parent="1">
          <mxGeometry x="160" y="1400" width="80" height="30" as="geometry" />
        </mxCell>
        <mxCell id="Qf5cFg5PGg5xUZjVv9TD-100" value="&lt;u&gt;data de compra&lt;/u&gt;" style="ellipse;whiteSpace=wrap;html=1;fillColor=#d5e8d4;strokeColor=#82b366;" vertex="1" parent="1">
          <mxGeometry x="510" y="1210" width="80" height="30" as="geometry" />
        </mxCell>
        <mxCell id="Qf5cFg5PGg5xUZjVv9TD-102" value="&lt;u&gt;valor&amp;nbsp; de compra&lt;/u&gt;" style="ellipse;whiteSpace=wrap;html=1;fillColor=#d5e8d4;strokeColor=#82b366;" vertex="1" parent="1">
          <mxGeometry x="510" y="1250" width="80" height="30" as="geometry" />
        </mxCell>
        <mxCell id="Qf5cFg5PGg5xUZjVv9TD-104" value="Escola" style="rounded=0;whiteSpace=wrap;html=1;fillColor=#dae8fc;strokeColor=#6c8ebf;" vertex="1" parent="1">
          <mxGeometry x="100" y="1840" width="120" height="60" as="geometry" />
        </mxCell>
        <mxCell id="Qf5cFg5PGg5xUZjVv9TD-105" value="Turma" style="rounded=0;whiteSpace=wrap;html=1;fillColor=#dae8fc;strokeColor=#6c8ebf;" vertex="1" parent="1">
          <mxGeometry x="460" y="1840" width="120" height="60" as="geometry" />
        </mxCell>
        <mxCell id="Qf5cFg5PGg5xUZjVv9TD-106" value="Professor" style="rounded=0;whiteSpace=wrap;html=1;fillColor=#dae8fc;strokeColor=#6c8ebf;" vertex="1" parent="1">
          <mxGeometry x="770" y="1840" width="120" height="60" as="geometry" />
        </mxCell>
        <mxCell id="Qf5cFg5PGg5xUZjVv9TD-108" value="Sala" style="rounded=0;whiteSpace=wrap;html=1;fillColor=#dae8fc;strokeColor=#6c8ebf;" vertex="1" parent="1">
          <mxGeometry x="460" y="2060" width="120" height="60" as="geometry" />
        </mxCell>
        <mxCell id="Qf5cFg5PGg5xUZjVv9TD-110" value="tem" style="rhombus;whiteSpace=wrap;html=1;fillColor=#ffe6cc;strokeColor=#d79b00;" vertex="1" parent="1">
          <mxGeometry x="299" y="1830" width="80" height="80" as="geometry" />
        </mxCell>
        <mxCell id="Qf5cFg5PGg5xUZjVv9TD-111" value="" style="endArrow=none;html=1;rounded=0;entryX=1;entryY=0.5;entryDx=0;entryDy=0;exitX=0;exitY=0.5;exitDx=0;exitDy=0;" edge="1" parent="1" source="Qf5cFg5PGg5xUZjVv9TD-110" target="Qf5cFg5PGg5xUZjVv9TD-104">
          <mxGeometry width="50" height="50" relative="1" as="geometry">
            <mxPoint x="380" y="1800" as="sourcePoint" />
            <mxPoint x="430" y="1750" as="targetPoint" />
          </mxGeometry>
        </mxCell>
        <mxCell id="Qf5cFg5PGg5xUZjVv9TD-140" value="(1)" style="edgeLabel;html=1;align=center;verticalAlign=middle;resizable=0;points=[];" vertex="1" connectable="0" parent="Qf5cFg5PGg5xUZjVv9TD-111">
          <mxGeometry x="0.173" y="-2" relative="1" as="geometry">
            <mxPoint as="offset" />
          </mxGeometry>
        </mxCell>
        <mxCell id="Qf5cFg5PGg5xUZjVv9TD-112" value="" style="endArrow=none;html=1;rounded=0;exitX=0;exitY=0.5;exitDx=0;exitDy=0;entryX=1;entryY=0.5;entryDx=0;entryDy=0;" edge="1" parent="1" source="Qf5cFg5PGg5xUZjVv9TD-105" target="Qf5cFg5PGg5xUZjVv9TD-110">
          <mxGeometry width="50" height="50" relative="1" as="geometry">
            <mxPoint x="380" y="1800" as="sourcePoint" />
            <mxPoint x="430" y="1750" as="targetPoint" />
          </mxGeometry>
        </mxCell>
        <mxCell id="Qf5cFg5PGg5xUZjVv9TD-139" value="(N)" style="edgeLabel;html=1;align=center;verticalAlign=middle;resizable=0;points=[];" vertex="1" connectable="0" parent="Qf5cFg5PGg5xUZjVv9TD-112">
          <mxGeometry x="0.0206" relative="1" as="geometry">
            <mxPoint as="offset" />
          </mxGeometry>
        </mxCell>
        <mxCell id="Qf5cFg5PGg5xUZjVv9TD-115" value="tem&lt;br&gt;" style="rhombus;whiteSpace=wrap;html=1;fillColor=#ffe6cc;strokeColor=#d79b00;" vertex="1" parent="1">
          <mxGeometry x="630" y="1830" width="80" height="80" as="geometry" />
        </mxCell>
        <mxCell id="Qf5cFg5PGg5xUZjVv9TD-121" value="" style="endArrow=none;html=1;rounded=0;entryX=0;entryY=0.5;entryDx=0;entryDy=0;exitX=1;exitY=0.5;exitDx=0;exitDy=0;" edge="1" parent="1" source="Qf5cFg5PGg5xUZjVv9TD-105" target="Qf5cFg5PGg5xUZjVv9TD-115">
          <mxGeometry width="50" height="50" relative="1" as="geometry">
            <mxPoint x="490" y="2000" as="sourcePoint" />
            <mxPoint x="540" y="1950" as="targetPoint" />
          </mxGeometry>
        </mxCell>
        <mxCell id="Qf5cFg5PGg5xUZjVv9TD-137" value="(1,N)" style="edgeLabel;html=1;align=center;verticalAlign=middle;resizable=0;points=[];" vertex="1" connectable="0" parent="Qf5cFg5PGg5xUZjVv9TD-121">
          <mxGeometry x="0.0533" y="-1" relative="1" as="geometry">
            <mxPoint as="offset" />
          </mxGeometry>
        </mxCell>
        <mxCell id="Qf5cFg5PGg5xUZjVv9TD-122" value="" style="endArrow=none;html=1;rounded=0;entryX=1;entryY=0.5;entryDx=0;entryDy=0;exitX=0;exitY=0.5;exitDx=0;exitDy=0;" edge="1" parent="1" source="Qf5cFg5PGg5xUZjVv9TD-106" target="Qf5cFg5PGg5xUZjVv9TD-115">
          <mxGeometry width="50" height="50" relative="1" as="geometry">
            <mxPoint x="490" y="2000" as="sourcePoint" />
            <mxPoint x="540" y="1950" as="targetPoint" />
          </mxGeometry>
        </mxCell>
        <mxCell id="Qf5cFg5PGg5xUZjVv9TD-133" value="(N)" style="edgeLabel;html=1;align=center;verticalAlign=middle;resizable=0;points=[];" vertex="1" connectable="0" parent="Qf5cFg5PGg5xUZjVv9TD-122">
          <mxGeometry x="-0.1778" y="-3" relative="1" as="geometry">
            <mxPoint as="offset" />
          </mxGeometry>
        </mxCell>
        <mxCell id="Qf5cFg5PGg5xUZjVv9TD-123" value="aulas" style="rhombus;whiteSpace=wrap;html=1;fillColor=#ffe6cc;strokeColor=#d79b00;" vertex="1" parent="1">
          <mxGeometry x="480" y="1940" width="80" height="80" as="geometry" />
        </mxCell>
        <mxCell id="Qf5cFg5PGg5xUZjVv9TD-124" value="(1)" style="endArrow=none;html=1;rounded=0;entryX=0.5;entryY=1;entryDx=0;entryDy=0;exitX=0.5;exitY=0;exitDx=0;exitDy=0;" edge="1" parent="1">
          <mxGeometry width="50" height="50" relative="1" as="geometry">
            <mxPoint x="519" y="1940" as="sourcePoint" />
            <mxPoint x="519" y="1900" as="targetPoint" />
          </mxGeometry>
        </mxCell>
        <mxCell id="Qf5cFg5PGg5xUZjVv9TD-135" value="1" style="edgeLabel;html=1;align=center;verticalAlign=middle;resizable=0;points=[];" vertex="1" connectable="0" parent="Qf5cFg5PGg5xUZjVv9TD-124">
          <mxGeometry x="0.0222" y="2" relative="1" as="geometry">
            <mxPoint as="offset" />
          </mxGeometry>
        </mxCell>
        <mxCell id="Qf5cFg5PGg5xUZjVv9TD-125" value="" style="endArrow=none;html=1;rounded=0;entryX=0.5;entryY=1;entryDx=0;entryDy=0;exitX=0.5;exitY=0;exitDx=0;exitDy=0;" edge="1" parent="1" source="Qf5cFg5PGg5xUZjVv9TD-108" target="Qf5cFg5PGg5xUZjVv9TD-123">
          <mxGeometry width="50" height="50" relative="1" as="geometry">
            <mxPoint x="490" y="2000" as="sourcePoint" />
            <mxPoint x="540" y="1950" as="targetPoint" />
          </mxGeometry>
        </mxCell>
        <mxCell id="Qf5cFg5PGg5xUZjVv9TD-136" value="(1,N)" style="edgeLabel;html=1;align=center;verticalAlign=middle;resizable=0;points=[];" vertex="1" connectable="0" parent="Qf5cFg5PGg5xUZjVv9TD-125">
          <mxGeometry x="0.0167" y="1" relative="1" as="geometry">
            <mxPoint as="offset" />
          </mxGeometry>
        </mxCell>
        <mxCell id="Qf5cFg5PGg5xUZjVv9TD-128" value="ministrar&lt;br&gt;aulas" style="rhombus;whiteSpace=wrap;html=1;fillColor=#ffe6cc;strokeColor=#d79b00;" vertex="1" parent="1">
          <mxGeometry x="640" y="1714" width="80" height="80" as="geometry" />
        </mxCell>
        <mxCell id="Qf5cFg5PGg5xUZjVv9TD-129" value="" style="endArrow=none;html=1;rounded=0;entryX=0.5;entryY=0;entryDx=0;entryDy=0;exitX=1;exitY=0.5;exitDx=0;exitDy=0;" edge="1" parent="1" source="Qf5cFg5PGg5xUZjVv9TD-128" target="Qf5cFg5PGg5xUZjVv9TD-106">
          <mxGeometry width="50" height="50" relative="1" as="geometry">
            <mxPoint x="700" y="1900" as="sourcePoint" />
            <mxPoint x="750" y="1850" as="targetPoint" />
          </mxGeometry>
        </mxCell>
        <mxCell id="Qf5cFg5PGg5xUZjVv9TD-134" value="(1)" style="edgeLabel;html=1;align=center;verticalAlign=middle;resizable=0;points=[];" vertex="1" connectable="0" parent="Qf5cFg5PGg5xUZjVv9TD-129">
          <mxGeometry x="-0.0345" y="4" relative="1" as="geometry">
            <mxPoint y="1" as="offset" />
          </mxGeometry>
        </mxCell>
        <mxCell id="Qf5cFg5PGg5xUZjVv9TD-130" value="" style="endArrow=none;html=1;rounded=0;entryX=0;entryY=0.5;entryDx=0;entryDy=0;exitX=0.5;exitY=0;exitDx=0;exitDy=0;" edge="1" parent="1" source="Qf5cFg5PGg5xUZjVv9TD-105" target="Qf5cFg5PGg5xUZjVv9TD-128">
          <mxGeometry width="50" height="50" relative="1" as="geometry">
            <mxPoint x="700" y="1900" as="sourcePoint" />
            <mxPoint x="750" y="1850" as="targetPoint" />
          </mxGeometry>
        </mxCell>
        <mxCell id="Qf5cFg5PGg5xUZjVv9TD-138" value="(1,N)" style="edgeLabel;html=1;align=center;verticalAlign=middle;resizable=0;points=[];" vertex="1" connectable="0" parent="Qf5cFg5PGg5xUZjVv9TD-130">
          <mxGeometry x="-0.1186" y="1" relative="1" as="geometry">
            <mxPoint as="offset" />
          </mxGeometry>
        </mxCell>
        <mxCell id="Qf5cFg5PGg5xUZjVv9TD-219" value="Livros" style="rounded=0;whiteSpace=wrap;html=1;fillColor=#dae8fc;strokeColor=#6c8ebf;" vertex="1" parent="1">
          <mxGeometry x="481" y="2460" width="120" height="60" as="geometry" />
        </mxCell>
        <mxCell id="Qf5cFg5PGg5xUZjVv9TD-220" value="Categoria" style="rounded=0;whiteSpace=wrap;html=1;fillColor=#dae8fc;strokeColor=#6c8ebf;" vertex="1" parent="1">
          <mxGeometry x="481" y="2250" width="120" height="60" as="geometry" />
        </mxCell>
        <mxCell id="Qf5cFg5PGg5xUZjVv9TD-221" value="Isbn" style="ellipse;whiteSpace=wrap;html=1;fillColor=#d5e8d4;strokeColor=#82b366;" vertex="1" parent="1">
          <mxGeometry x="510" y="2530" width="80" height="30" as="geometry" />
        </mxCell>
        <mxCell id="Qf5cFg5PGg5xUZjVv9TD-222" value="Ano editora" style="ellipse;whiteSpace=wrap;html=1;fillColor=#d5e8d4;strokeColor=#82b366;" vertex="1" parent="1">
          <mxGeometry x="510" y="2570" width="80" height="30" as="geometry" />
        </mxCell>
        <mxCell id="Qf5cFg5PGg5xUZjVv9TD-223" value="Titulo" style="ellipse;whiteSpace=wrap;html=1;fillColor=#d5e8d4;strokeColor=#82b366;" vertex="1" parent="1">
          <mxGeometry x="510" y="2610" width="80" height="30" as="geometry" />
        </mxCell>
        <mxCell id="Qf5cFg5PGg5xUZjVv9TD-224" value="Autores do Livro" style="ellipse;whiteSpace=wrap;html=1;fillColor=#d5e8d4;strokeColor=#82b366;" vertex="1" parent="1">
          <mxGeometry x="510" y="2650" width="80" height="30" as="geometry" />
        </mxCell>
        <mxCell id="Qf5cFg5PGg5xUZjVv9TD-229" value="Autor" style="rounded=0;whiteSpace=wrap;html=1;fillColor=#dae8fc;strokeColor=#6c8ebf;" vertex="1" parent="1">
          <mxGeometry x="170" y="2450" width="120" height="60" as="geometry" />
        </mxCell>
        <mxCell id="Qf5cFg5PGg5xUZjVv9TD-230" value="Nome" style="ellipse;whiteSpace=wrap;html=1;fillColor=#d5e8d4;strokeColor=#82b366;" vertex="1" parent="1">
          <mxGeometry x="200" y="2528" width="80" height="30" as="geometry" />
        </mxCell>
        <mxCell id="Qf5cFg5PGg5xUZjVv9TD-231" value="Nacionalidade" style="ellipse;whiteSpace=wrap;html=1;fillColor=#d5e8d4;strokeColor=#82b366;" vertex="1" parent="1">
          <mxGeometry x="200" y="2570" width="80" height="30" as="geometry" />
        </mxCell>
        <mxCell id="Qf5cFg5PGg5xUZjVv9TD-234" value="tem" style="rhombus;whiteSpace=wrap;html=1;fillColor=#ffe6cc;strokeColor=#d79b00;" vertex="1" parent="1">
          <mxGeometry x="351" y="2450" width="80" height="80" as="geometry" />
        </mxCell>
        <mxCell id="Qf5cFg5PGg5xUZjVv9TD-235" value="" style="endArrow=none;html=1;rounded=0;exitX=0;exitY=0.5;exitDx=0;exitDy=0;entryX=1;entryY=0.5;entryDx=0;entryDy=0;" edge="1" parent="1" source="Qf5cFg5PGg5xUZjVv9TD-234">
          <mxGeometry width="50" height="50" relative="1" as="geometry">
            <mxPoint x="346" y="2490" as="sourcePoint" />
            <mxPoint x="290" y="2490" as="targetPoint" />
          </mxGeometry>
        </mxCell>
        <mxCell id="Qf5cFg5PGg5xUZjVv9TD-236" value="(1,N)" style="edgeLabel;html=1;align=center;verticalAlign=middle;resizable=0;points=[];" vertex="1" connectable="0" parent="Qf5cFg5PGg5xUZjVv9TD-235">
          <mxGeometry x="0.071" y="-3" relative="1" as="geometry">
            <mxPoint as="offset" />
          </mxGeometry>
        </mxCell>
        <mxCell id="Qf5cFg5PGg5xUZjVv9TD-237" value="" style="endArrow=none;html=1;rounded=0;entryX=1;entryY=0.5;entryDx=0;entryDy=0;exitX=0;exitY=0.5;exitDx=0;exitDy=0;" edge="1" parent="1" source="Qf5cFg5PGg5xUZjVv9TD-219" target="Qf5cFg5PGg5xUZjVv9TD-234">
          <mxGeometry width="50" height="50" relative="1" as="geometry">
            <mxPoint x="391" y="2610" as="sourcePoint" />
            <mxPoint x="441" y="2560" as="targetPoint" />
          </mxGeometry>
        </mxCell>
        <mxCell id="Qf5cFg5PGg5xUZjVv9TD-238" value="(1,N)" style="edgeLabel;html=1;align=center;verticalAlign=middle;resizable=0;points=[];" vertex="1" connectable="0" parent="Qf5cFg5PGg5xUZjVv9TD-237">
          <mxGeometry x="-0.0533" y="-2" relative="1" as="geometry">
            <mxPoint as="offset" />
          </mxGeometry>
        </mxCell>
        <mxCell id="Qf5cFg5PGg5xUZjVv9TD-240" value="pertence" style="rhombus;whiteSpace=wrap;html=1;fillColor=#ffe6cc;strokeColor=#d79b00;" vertex="1" parent="1">
          <mxGeometry x="501" y="2350" width="80" height="80" as="geometry" />
        </mxCell>
        <mxCell id="Qf5cFg5PGg5xUZjVv9TD-241" value="" style="endArrow=none;html=1;rounded=0;entryX=0.5;entryY=1;entryDx=0;entryDy=0;exitX=0.5;exitY=0;exitDx=0;exitDy=0;" edge="1" parent="1">
          <mxGeometry width="50" height="50" relative="1" as="geometry">
            <mxPoint x="541" y="2460" as="sourcePoint" />
            <mxPoint x="541" y="2430" as="targetPoint" />
          </mxGeometry>
        </mxCell>
        <mxCell id="Qf5cFg5PGg5xUZjVv9TD-266" value="(1,1)" style="edgeLabel;html=1;align=center;verticalAlign=middle;resizable=0;points=[];" vertex="1" connectable="0" parent="Qf5cFg5PGg5xUZjVv9TD-241">
          <mxGeometry x="-0.0246" y="-2" relative="1" as="geometry">
            <mxPoint as="offset" />
          </mxGeometry>
        </mxCell>
        <mxCell id="Qf5cFg5PGg5xUZjVv9TD-242" value="" style="endArrow=none;html=1;rounded=0;entryX=0.5;entryY=0;entryDx=0;entryDy=0;exitX=0.5;exitY=1;exitDx=0;exitDy=0;" edge="1" parent="1" source="Qf5cFg5PGg5xUZjVv9TD-220" target="Qf5cFg5PGg5xUZjVv9TD-240">
          <mxGeometry width="50" height="50" relative="1" as="geometry">
            <mxPoint x="471" y="2510" as="sourcePoint" />
            <mxPoint x="521" y="2460" as="targetPoint" />
          </mxGeometry>
        </mxCell>
        <mxCell id="Qf5cFg5PGg5xUZjVv9TD-265" value="(1,N)" style="edgeLabel;html=1;align=center;verticalAlign=middle;resizable=0;points=[];" vertex="1" connectable="0" parent="Qf5cFg5PGg5xUZjVv9TD-242">
          <mxGeometry x="-0.2819" y="-1" relative="1" as="geometry">
            <mxPoint as="offset" />
          </mxGeometry>
        </mxCell>
        <mxCell id="Qf5cFg5PGg5xUZjVv9TD-246" value="" style="endArrow=none;html=1;rounded=0;entryX=0.25;entryY=1;entryDx=0;entryDy=0;exitX=0;exitY=0.5;exitDx=0;exitDy=0;" edge="1" parent="1" source="Qf5cFg5PGg5xUZjVv9TD-230" target="Qf5cFg5PGg5xUZjVv9TD-229">
          <mxGeometry width="50" height="50" relative="1" as="geometry">
            <mxPoint x="510" y="2640" as="sourcePoint" />
            <mxPoint x="560" y="2590" as="targetPoint" />
          </mxGeometry>
        </mxCell>
        <mxCell id="Qf5cFg5PGg5xUZjVv9TD-247" value="" style="endArrow=none;html=1;rounded=0;entryX=0;entryY=0.5;entryDx=0;entryDy=0;exitX=0;exitY=0.5;exitDx=0;exitDy=0;" edge="1" parent="1" source="Qf5cFg5PGg5xUZjVv9TD-231" target="Qf5cFg5PGg5xUZjVv9TD-230">
          <mxGeometry width="50" height="50" relative="1" as="geometry">
            <mxPoint x="510" y="2640" as="sourcePoint" />
            <mxPoint x="560" y="2590" as="targetPoint" />
          </mxGeometry>
        </mxCell>
        <mxCell id="Qf5cFg5PGg5xUZjVv9TD-248" value="" style="endArrow=none;html=1;rounded=0;entryX=0;entryY=0.5;entryDx=0;entryDy=0;exitX=0;exitY=0.5;exitDx=0;exitDy=0;" edge="1" parent="1" source="Qf5cFg5PGg5xUZjVv9TD-75" target="Qf5cFg5PGg5xUZjVv9TD-73">
          <mxGeometry width="50" height="50" relative="1" as="geometry">
            <mxPoint x="510" y="1070" as="sourcePoint" />
            <mxPoint x="560" y="1020" as="targetPoint" />
          </mxGeometry>
        </mxCell>
        <mxCell id="Qf5cFg5PGg5xUZjVv9TD-249" value="" style="endArrow=none;html=1;rounded=0;entryX=0;entryY=0.5;entryDx=0;entryDy=0;exitX=0;exitY=0.5;exitDx=0;exitDy=0;" edge="1" parent="1" source="Qf5cFg5PGg5xUZjVv9TD-76" target="Qf5cFg5PGg5xUZjVv9TD-75">
          <mxGeometry width="50" height="50" relative="1" as="geometry">
            <mxPoint x="510" y="1070" as="sourcePoint" />
            <mxPoint x="560" y="1020" as="targetPoint" />
          </mxGeometry>
        </mxCell>
        <mxCell id="Qf5cFg5PGg5xUZjVv9TD-250" value="" style="endArrow=none;html=1;rounded=0;entryX=0;entryY=0.5;entryDx=0;entryDy=0;exitX=0;exitY=0.5;exitDx=0;exitDy=0;" edge="1" parent="1" source="Qf5cFg5PGg5xUZjVv9TD-77" target="Qf5cFg5PGg5xUZjVv9TD-76">
          <mxGeometry width="50" height="50" relative="1" as="geometry">
            <mxPoint x="510" y="1070" as="sourcePoint" />
            <mxPoint x="560" y="1020" as="targetPoint" />
          </mxGeometry>
        </mxCell>
        <mxCell id="Qf5cFg5PGg5xUZjVv9TD-251" value="" style="endArrow=none;html=1;rounded=0;entryX=0;entryY=0.5;entryDx=0;entryDy=0;exitX=0;exitY=0.5;exitDx=0;exitDy=0;" edge="1" parent="1" source="Qf5cFg5PGg5xUZjVv9TD-78" target="Qf5cFg5PGg5xUZjVv9TD-77">
          <mxGeometry width="50" height="50" relative="1" as="geometry">
            <mxPoint x="510" y="1070" as="sourcePoint" />
            <mxPoint x="560" y="1020" as="targetPoint" />
          </mxGeometry>
        </mxCell>
        <mxCell id="Qf5cFg5PGg5xUZjVv9TD-252" value="" style="endArrow=none;html=1;rounded=0;exitX=0;exitY=0.5;exitDx=0;exitDy=0;entryX=0.25;entryY=1;entryDx=0;entryDy=0;" edge="1" parent="1" source="Qf5cFg5PGg5xUZjVv9TD-87" target="Qf5cFg5PGg5xUZjVv9TD-46">
          <mxGeometry width="50" height="50" relative="1" as="geometry">
            <mxPoint x="510" y="1380" as="sourcePoint" />
            <mxPoint x="150" y="1190" as="targetPoint" />
          </mxGeometry>
        </mxCell>
        <mxCell id="Qf5cFg5PGg5xUZjVv9TD-253" value="" style="endArrow=none;html=1;rounded=0;entryX=0;entryY=0.5;entryDx=0;entryDy=0;exitX=0;exitY=0.5;exitDx=0;exitDy=0;" edge="1" parent="1" source="Qf5cFg5PGg5xUZjVv9TD-90" target="Qf5cFg5PGg5xUZjVv9TD-87">
          <mxGeometry width="50" height="50" relative="1" as="geometry">
            <mxPoint x="510" y="1280" as="sourcePoint" />
            <mxPoint x="560" y="1230" as="targetPoint" />
          </mxGeometry>
        </mxCell>
        <mxCell id="Qf5cFg5PGg5xUZjVv9TD-255" value="" style="endArrow=none;html=1;rounded=0;entryX=0;entryY=0.5;entryDx=0;entryDy=0;exitX=0;exitY=0.5;exitDx=0;exitDy=0;" edge="1" parent="1" source="Qf5cFg5PGg5xUZjVv9TD-89" target="Qf5cFg5PGg5xUZjVv9TD-90">
          <mxGeometry width="50" height="50" relative="1" as="geometry">
            <mxPoint x="510" y="1280" as="sourcePoint" />
            <mxPoint x="560" y="1230" as="targetPoint" />
          </mxGeometry>
        </mxCell>
        <mxCell id="Qf5cFg5PGg5xUZjVv9TD-256" value="" style="endArrow=none;html=1;rounded=0;entryX=0;entryY=0.5;entryDx=0;entryDy=0;exitX=0;exitY=0.5;exitDx=0;exitDy=0;" edge="1" parent="1" source="Qf5cFg5PGg5xUZjVv9TD-91" target="Qf5cFg5PGg5xUZjVv9TD-89">
          <mxGeometry width="50" height="50" relative="1" as="geometry">
            <mxPoint x="510" y="1280" as="sourcePoint" />
            <mxPoint x="560" y="1230" as="targetPoint" />
          </mxGeometry>
        </mxCell>
        <mxCell id="Qf5cFg5PGg5xUZjVv9TD-257" value="" style="endArrow=none;html=1;rounded=0;entryX=0;entryY=0.5;entryDx=0;entryDy=0;exitX=0;exitY=0.5;exitDx=0;exitDy=0;" edge="1" parent="1" source="Qf5cFg5PGg5xUZjVv9TD-92" target="Qf5cFg5PGg5xUZjVv9TD-91">
          <mxGeometry width="50" height="50" relative="1" as="geometry">
            <mxPoint x="510" y="1280" as="sourcePoint" />
            <mxPoint x="560" y="1230" as="targetPoint" />
          </mxGeometry>
        </mxCell>
        <mxCell id="Qf5cFg5PGg5xUZjVv9TD-258" value="" style="endArrow=none;html=1;rounded=0;entryX=0;entryY=0.5;entryDx=0;entryDy=0;exitX=0;exitY=0.5;exitDx=0;exitDy=0;" edge="1" parent="1" source="Qf5cFg5PGg5xUZjVv9TD-93" target="Qf5cFg5PGg5xUZjVv9TD-92">
          <mxGeometry width="50" height="50" relative="1" as="geometry">
            <mxPoint x="510" y="1280" as="sourcePoint" />
            <mxPoint x="560" y="1230" as="targetPoint" />
          </mxGeometry>
        </mxCell>
        <mxCell id="Qf5cFg5PGg5xUZjVv9TD-259" value="" style="endArrow=none;html=1;rounded=0;entryX=0.25;entryY=1;entryDx=0;entryDy=0;exitX=0;exitY=0.5;exitDx=0;exitDy=0;" edge="1" parent="1" source="Qf5cFg5PGg5xUZjVv9TD-100" target="Qf5cFg5PGg5xUZjVv9TD-34">
          <mxGeometry width="50" height="50" relative="1" as="geometry">
            <mxPoint x="415" y="1290" as="sourcePoint" />
            <mxPoint x="465" y="1240" as="targetPoint" />
          </mxGeometry>
        </mxCell>
        <mxCell id="Qf5cFg5PGg5xUZjVv9TD-260" value="" style="endArrow=none;html=1;rounded=0;entryX=0;entryY=0.5;entryDx=0;entryDy=0;exitX=0;exitY=0.5;exitDx=0;exitDy=0;" edge="1" parent="1" source="Qf5cFg5PGg5xUZjVv9TD-102" target="Qf5cFg5PGg5xUZjVv9TD-100">
          <mxGeometry width="50" height="50" relative="1" as="geometry">
            <mxPoint x="510" y="1280" as="sourcePoint" />
            <mxPoint x="560" y="1230" as="targetPoint" />
          </mxGeometry>
        </mxCell>
        <mxCell id="Qf5cFg5PGg5xUZjVv9TD-261" value="" style="endArrow=none;html=1;rounded=0;entryX=0.25;entryY=1;entryDx=0;entryDy=0;exitX=0;exitY=0.5;exitDx=0;exitDy=0;" edge="1" parent="1" source="Qf5cFg5PGg5xUZjVv9TD-221" target="Qf5cFg5PGg5xUZjVv9TD-219">
          <mxGeometry width="50" height="50" relative="1" as="geometry">
            <mxPoint x="510" y="2640" as="sourcePoint" />
            <mxPoint x="560" y="2590" as="targetPoint" />
          </mxGeometry>
        </mxCell>
        <mxCell id="Qf5cFg5PGg5xUZjVv9TD-262" value="" style="endArrow=none;html=1;rounded=0;entryX=0;entryY=0.5;entryDx=0;entryDy=0;exitX=0;exitY=0.5;exitDx=0;exitDy=0;" edge="1" parent="1" source="Qf5cFg5PGg5xUZjVv9TD-222" target="Qf5cFg5PGg5xUZjVv9TD-221">
          <mxGeometry width="50" height="50" relative="1" as="geometry">
            <mxPoint x="510" y="2640" as="sourcePoint" />
            <mxPoint x="560" y="2590" as="targetPoint" />
          </mxGeometry>
        </mxCell>
        <mxCell id="Qf5cFg5PGg5xUZjVv9TD-263" value="" style="endArrow=none;html=1;rounded=0;entryX=0;entryY=0.5;entryDx=0;entryDy=0;exitX=0;exitY=0.5;exitDx=0;exitDy=0;" edge="1" parent="1" source="Qf5cFg5PGg5xUZjVv9TD-223" target="Qf5cFg5PGg5xUZjVv9TD-222">
          <mxGeometry width="50" height="50" relative="1" as="geometry">
            <mxPoint x="510" y="2640" as="sourcePoint" />
            <mxPoint x="560" y="2590" as="targetPoint" />
          </mxGeometry>
        </mxCell>
        <mxCell id="Qf5cFg5PGg5xUZjVv9TD-264" value="" style="endArrow=none;html=1;rounded=0;entryX=0;entryY=0.5;entryDx=0;entryDy=0;exitX=0;exitY=0.5;exitDx=0;exitDy=0;" edge="1" parent="1" source="Qf5cFg5PGg5xUZjVv9TD-224" target="Qf5cFg5PGg5xUZjVv9TD-223">
          <mxGeometry width="50" height="50" relative="1" as="geometry">
            <mxPoint x="510" y="2640" as="sourcePoint" />
            <mxPoint x="560" y="2590" as="targetPoint" />
          </mxGeometry>
        </mxCell>
        <mxCell id="Qf5cFg5PGg5xUZjVv9TD-267" value="Codigo da categoria" style="ellipse;whiteSpace=wrap;html=1;fillColor=#d5e8d4;strokeColor=#82b366;" vertex="1" parent="1">
          <mxGeometry x="630" y="2265" width="80" height="30" as="geometry" />
        </mxCell>
        <mxCell id="Qf5cFg5PGg5xUZjVv9TD-268" value="DescriÃ§Ã£o" style="ellipse;whiteSpace=wrap;html=1;fillColor=#d5e8d4;strokeColor=#82b366;" vertex="1" parent="1">
          <mxGeometry x="630" y="2310" width="80" height="30" as="geometry" />
        </mxCell>
        <mxCell id="Qf5cFg5PGg5xUZjVv9TD-269" value="" style="endArrow=none;html=1;rounded=0;exitX=0;exitY=0.5;exitDx=0;exitDy=0;entryX=1;entryY=0.5;entryDx=0;entryDy=0;" edge="1" parent="1" source="Qf5cFg5PGg5xUZjVv9TD-267" target="Qf5cFg5PGg5xUZjVv9TD-220">
          <mxGeometry width="50" height="50" relative="1" as="geometry">
            <mxPoint x="900" y="2540" as="sourcePoint" />
            <mxPoint x="790" y="2310" as="targetPoint" />
          </mxGeometry>
        </mxCell>
        <mxCell id="Qf5cFg5PGg5xUZjVv9TD-270" value="" style="endArrow=none;html=1;rounded=0;entryX=0;entryY=0.5;entryDx=0;entryDy=0;exitX=0;exitY=0.5;exitDx=0;exitDy=0;" edge="1" parent="1" source="Qf5cFg5PGg5xUZjVv9TD-268" target="Qf5cFg5PGg5xUZjVv9TD-267">
          <mxGeometry width="50" height="50" relative="1" as="geometry">
            <mxPoint x="900" y="2540" as="sourcePoint" />
            <mxPoint x="950" y="2490" as="targetPoint" />
          </mxGeometry>
        </mxCell>
      </root>
    </mxGraphModel>
  </diagram>
</mxfile>
